# xmcd
#
# Track frame offsets: 
#        150
#        22304
#        41003
#        63353
#        80619
#        97408
#        118313
#        134231
#        159829
#        178266
#        205919
#        221103
#
# Disc length: 3263 seconds
#
# Revision: 0
# Processed by: cddbd v1.5.2PL0 Copyright (c) Steve Scherf et al.
# Submitted via: ExactAudioCopyFreeDBPlugin 1.0
#
DISCID=c20cbd0c
DTITLE=Clarence Spady - Just Between Us
DYEAR=2009
DGENRE=Blues
TTITLE0=I'll Never Sell You Out
TTITLE1=Enough of You
TTITLE2=Just Between Us
TTITLE3=King of Hearts
TTITLE4=Won't Be This Way Always
TTITLE5=I'll Go
TTITLE6=Cut Them Loose
TTITLE7=Be Your Enough
TTITLE8=24-7 Luv
TTITLE9=E-Mail
TTITLE10=Candy
TTITLE11=Sexual Healing
EXTD=
EXTT0=
EXTT1=
EXTT2=
EXTT3=
EXTT4=
EXTT5=
EXTT6=
EXTT7=
EXTT8=
EXTT9=
EXTT10=
EXTT11=
PLAYORDER=
